<svg width="53" height="90" viewBox="0 0 53 90" fill="none" xmlns="http://www.w3.org/2000/svg">
<g id="Logo">
<g id="Vase">
<path d="M29.1825 19.0265C38.7405 21.7719 49.112 16.0777 50.1288 4.48609C50.1288 0.11379 33.1481 -3.95344 26.2338 7.1298V17.7047L29.1825 19.0265Z" fill="#00CC77"/>
<path d="M29.1825 26.5509V19.0265L26.2338 17.7047V26.5509H29.1825Z" fill="#02A76F"/>
<path d="M23.285 19.0265V26.5509H26.2338V17.7047L23.285 19.0265Z" fill="#00CD78"/>
<path d="M2.33867 4.48609C3.35548 16.0777 13.727 21.7719 23.285 19.0265L26.2338 17.7047V7.1298C19.3194 -3.95344 2.33867 0.11379 2.33867 4.48609Z" fill="#A4E786"/>
<path d="M45.0448 42.5149L40.2658 38.4476L40.7742 37.0241H26.2338V42.5149H45.0448Z" fill="#717171"/>
<path d="M40.7742 37.0241L43.3162 29.9064C44.2313 27.161 42.2994 26.5509 40.9775 26.5509H29.1825H26.2338V37.0241H40.7742Z" fill="#878787"/>
<path d="M41.8927 90C46.2649 90 52.4675 85.6277 52.4675 79.8319V60.3091C52.4675 54.92 50.5356 47.4972 45.0448 42.5149H26.2338V90H41.8927Z" fill="#878787"/>
<path d="M9.15131 29.9064L11.6933 37.0241H26.2338V26.5509H23.285H11.49C10.1681 26.5509 8.23618 27.161 9.15131 29.9064Z" fill="#C4C4C4"/>
<path d="M0.915131 34.177C0.915131 38.4476 2.84707 41.498 7.42273 42.5149H26.2338V37.0241H11.6933H8.74458C7.11768 37.0241 6.5076 36.3123 6.5076 34.177C6.5076 31.0249 0.915131 31.0249 0.915131 34.177Z" fill="#B4B4B4"/>
<path d="M0 79.8319C0 85.6277 6.20255 90 10.5748 90H26.2338V42.5149H7.42273C1.93194 47.4972 0 54.92 0 60.3091V79.8319Z" fill="#D5D5D5"/>
<path d="M29.0808 71.0873C29.0808 72.6597 27.8061 73.9344 26.2338 73.9344C26.1654 73.9344 26.3009 73.9391 26.2338 73.9344V82.0567C27.6938 82.0567 28.6741 80.8397 28.6741 79.3235V79.0116C32.0071 77.6952 34.3682 74.4159 34.3682 70.5789C33.5909 66.62 33.0608 63.9866 26.2338 62.4323V68.2402C26.1675 68.2224 26.303 68.2613 26.2338 68.2402C28.1657 68.7603 29.0808 69.5149 29.0808 71.0873Z" fill="#E3E3E3"/>
<path d="M30.1993 59.4956C31.6032 59.4956 32.7413 58.3575 32.7413 56.9536C32.7413 56.4611 32.6013 56.0014 32.3589 55.6119C32.1406 55.3494 31.9056 55.1014 31.6553 54.8696C30.8126 54.0888 29.7978 53.4911 28.6741 53.1399V52.8863C28.6741 51.3701 27.6938 50.1288 26.2338 50.1288V58.0749C26.1997 58.0749 26.2674 58.0733 26.2338 58.0749C27.5556 58.0749 28.064 59.4956 30.1993 59.4956Z" fill="#E3E3E3"/>
<path d="M26.2338 50.1288C24.7737 50.1288 23.3867 51.3701 23.3867 52.8863V53.3589C20.5241 54.5236 18.506 57.0553 18.506 60.6141C18.506 64.0837 23.5416 67.4185 26.2338 68.2402V62.4323C26.1666 62.417 25.8954 62.3362 25.827 62.3211C24.7922 62.1731 23.9968 61.2831 23.9968 60.2074C23.9968 59.0622 25.1017 58.128 26.2338 58.0749V50.1288Z" fill="#EDEDED"/>
<path d="M20.4379 72.1041C19.034 72.1041 17.8959 73.2422 17.8959 74.6461C17.8959 75.2436 18.0913 75.8027 18.4363 76.2367C19.6703 77.7927 21.4022 78.9275 23.3875 79.394C23.4235 80.8776 24.7964 82.0567 26.2338 82.0567V73.9344C26.0952 73.9246 25.756 73.8977 25.6237 73.8688C23.7853 73.622 22.8361 73.2405 21.2514 72.237C20.996 72.1508 20.7224 72.1041 20.4379 72.1041Z" fill="#EDEDED"/>
</g>
<g id="$WithShadow" filter="url(#filter0_d_19_61)">
<path d="M29.0808 71.0873C29.0808 72.6597 27.8061 73.9344 26.2337 73.9344C26.1654 73.9344 26.3009 73.9391 26.2337 73.9344V82.0567C27.6938 82.0567 28.6741 80.8397 28.6741 79.3235V79.0116C32.0071 77.6952 34.3682 74.4159 34.3682 70.5789C33.5909 66.62 33.0608 63.9866 26.2337 62.4323V68.2402C26.1674 68.2224 26.303 68.2614 26.2337 68.2402C28.1657 68.7604 29.0808 69.5149 29.0808 71.0873Z" fill="#E3E3E3"/>
<path d="M30.1993 59.4956C31.6032 59.4956 32.7413 58.3575 32.7413 56.9536C32.7413 56.4611 32.6013 56.0014 32.3589 55.612C32.1406 55.3495 31.9056 55.1015 31.6553 54.8696C30.8126 54.0888 29.7978 53.4912 28.6741 53.1399V52.8864C28.6741 51.3701 27.6938 50.1288 26.2337 50.1288V58.0749C26.1996 58.0749 26.2674 58.0734 26.2337 58.0749C27.5556 58.0749 28.064 59.4956 30.1993 59.4956Z" fill="#E3E3E3"/>
<path d="M26.2337 50.1288C24.7737 50.1288 23.3867 51.3701 23.3867 52.8864V53.3589C20.5241 54.5236 18.506 57.0553 18.506 60.6141C18.506 64.0837 23.5416 67.4185 26.2337 68.2402V62.4323C26.1665 62.417 25.8954 62.3362 25.827 62.3211C24.7922 62.1731 23.9967 61.2831 23.9967 60.2074C23.9967 59.0622 25.1017 58.128 26.2337 58.0749V50.1288Z" fill="#EDEDED"/>
<path d="M20.4379 72.1041C19.034 72.1041 17.8959 73.2422 17.8959 74.6461C17.8959 75.2436 18.0913 75.8027 18.4363 76.2367C19.6703 77.7927 21.4021 78.9275 23.3875 79.394C23.4235 80.8776 24.7964 82.0567 26.2337 82.0567V73.9344C26.0952 73.9246 25.756 73.8977 25.6236 73.8688C23.7853 73.622 22.836 73.2406 21.2514 72.237C20.996 72.1508 20.7224 72.1041 20.4379 72.1041Z" fill="#EDEDED"/>
</g>
</g>
<defs>
<filter id="filter0_d_19_61" x="17.0824" y="49.3154" width="18.0993" height="33.5548" filterUnits="userSpaceOnUse" color-interpolation-filters="sRGB">
<feFlood flood-opacity="0" result="BackgroundImageFix"/>
<feColorMatrix in="SourceAlpha" type="matrix" values="0 0 0 0 0 0 0 0 0 0 0 0 0 0 0 0 0 0 127 0" result="hardAlpha"/>
<feOffset/>
<feGaussianBlur stdDeviation="0.406725"/>
<feComposite in2="hardAlpha" operator="out"/>
<feColorMatrix type="matrix" values="0 0 0 0 0 0 0 0 0 0 0 0 0 0 0 0 0 0 0.25 0"/>
<feBlend mode="normal" in2="BackgroundImageFix" result="effect1_dropShadow_19_61"/>
<feBlend mode="normal" in="SourceGraphic" in2="effect1_dropShadow_19_61" result="shape"/>
</filter>
</defs>
</svg>
