<svg width="70" height="70" viewBox="0 0 70 70" fill="none" xmlns="http://www.w3.org/2000/svg">
<path id="ArrowRight" fill-rule="evenodd" clip-rule="evenodd" d="M65.625 35C65.625 43.1223 62.3984 50.9118 56.6551 56.6551C50.9118 62.3984 43.1223 65.625 35 65.625C26.8777 65.625 19.0882 62.3984 13.3449 56.6551C7.60155 50.9118 4.375 43.1223 4.375 35C4.375 26.8777 7.60155 19.0882 13.3449 13.3449C19.0882 7.60155 26.8777 4.375 35 4.375C43.1223 4.375 50.9118 7.60155 56.6551 13.3449C62.3984 19.0882 65.625 26.8777 65.625 35ZM0 35C0 44.2826 3.68748 53.185 10.2513 59.7487C16.815 66.3125 25.7174 70 35 70C44.2826 70 53.185 66.3125 59.7487 59.7487C66.3125 53.185 70 44.2826 70 35C70 25.7174 66.3125 16.815 59.7487 10.2513C53.185 3.68749 44.2826 0 35 0C25.7174 0 16.815 3.68749 10.2513 10.2513C3.68748 16.815 0 25.7174 0 35ZM19.6875 32.8125C19.1073 32.8125 18.5509 33.043 18.1407 33.4532C17.7305 33.8634 17.5 34.4198 17.5 35C17.5 35.5802 17.7305 36.1366 18.1407 36.5468C18.5509 36.957 19.1073 37.1875 19.6875 37.1875H45.0319L35.6387 46.5762C35.4354 46.7796 35.274 47.0211 35.164 47.2868C35.0539 47.5526 34.9972 47.8374 34.9972 48.125C34.9972 48.4126 35.0539 48.6974 35.164 48.9632C35.274 49.2289 35.4354 49.4704 35.6387 49.6738C35.8421 49.8771 36.0836 50.0385 36.3493 50.1485C36.6151 50.2586 36.8999 50.3153 37.1875 50.3153C37.4751 50.3153 37.7599 50.2586 38.0257 50.1485C38.2914 50.0385 38.5329 49.8771 38.7362 49.6738L51.8612 36.5488C52.065 36.3456 52.2266 36.1042 52.3369 35.8384C52.4471 35.5726 52.5039 35.2877 52.5039 35C52.5039 34.7123 52.4471 34.4274 52.3369 34.1616C52.2266 33.8958 52.065 33.6544 51.8612 33.4512L38.7362 20.3263C38.3255 19.9155 37.7684 19.6847 37.1875 19.6847C36.6066 19.6847 36.0495 19.9155 35.6387 20.3263C35.228 20.737 34.9972 21.2941 34.9972 21.875C34.9972 22.4559 35.228 23.013 35.6387 23.4237L45.0319 32.8125H19.6875Z"/>
</svg>
