<svg width="100" height="76" viewBox="0 0 100 76" fill="none" xmlns="http://www.w3.org/2000/svg">
<path id="Email" d="M0 13C0 9.68479 1.31696 6.50537 3.66117 4.16116C6.00537 1.81696 9.18479 0.5 12.5 0.5H87.5C90.8152 0.5 93.9946 1.81696 96.3388 4.16116C98.683 6.50537 100 9.68479 100 13V63C100 66.3152 98.683 69.4946 96.3388 71.8388C93.9946 74.183 90.8152 75.5 87.5 75.5H12.5C9.18479 75.5 6.00537 74.183 3.66117 71.8388C1.31696 69.4946 0 66.3152 0 63V13ZM12.5 6.75C10.8424 6.75 9.25268 7.40848 8.08058 8.58058C6.90848 9.75268 6.25 11.3424 6.25 13V14.3563L50 40.6062L93.75 14.3563V13C93.75 11.3424 93.0915 9.75268 91.9194 8.58058C90.7473 7.40848 89.1576 6.75 87.5 6.75H12.5ZM93.75 21.6437L64.325 39.3L93.75 57.4062V21.6437ZM93.5375 64.6187L58.2875 42.925L50 47.8938L41.7125 42.925L6.4625 64.6125C6.81766 65.9425 7.60198 67.118 8.69369 67.9566C9.78539 68.7951 11.1234 69.2498 12.5 69.25H87.5C88.8758 69.2502 90.2132 68.7964 91.3048 67.959C92.3964 67.1217 93.1812 65.9476 93.5375 64.6187ZM6.25 57.4062L35.675 39.3L6.25 21.6437V57.4062Z"/>
</svg>
