<svg width="100" height="100" viewBox="0 0 100 100" fill="none" xmlns="http://www.w3.org/2000/svg">
<path id="Telephone" d="M22.8375 8.3C22.4685 7.82538 22.0028 7.4347 21.4713 7.15391C20.9397 6.87311 20.3545 6.70863 19.7545 6.67139C19.1545 6.63415 18.5534 6.725 17.9912 6.9379C17.429 7.15081 16.9186 7.4809 16.4937 7.90625L10.0312 14.375C7.0125 17.4 5.9 21.6813 7.21875 25.4375C12.6921 40.9849 21.5956 55.1006 33.2688 66.7375C44.9058 78.4105 59.0214 87.3139 74.5687 92.7875C78.325 94.1062 82.6063 92.9937 85.6313 89.975L92.0937 83.5125C92.5191 83.0877 92.8492 82.5772 93.0621 82.015C93.275 81.4528 93.3659 80.8518 93.3286 80.2518C93.2914 79.6518 93.1269 79.0665 92.8461 78.535C92.5653 78.0034 92.1746 77.5377 91.7 77.1687L77.2812 65.9563C76.7742 65.563 76.1844 65.29 75.5565 65.1579C74.9285 65.0258 74.2788 65.0381 73.6563 65.1937L59.9688 68.6125C58.1417 69.0691 56.2276 69.0449 54.4128 68.5422C52.5979 68.0394 50.9442 67.0753 49.6125 65.7437L34.2625 50.3875C32.9298 49.0565 31.9645 47.403 31.4607 45.5881C30.9569 43.7732 30.9317 41.8588 31.3875 40.0313L34.8125 26.3438C34.9682 25.7212 34.9804 25.0715 34.8483 24.4435C34.7163 23.8156 34.4433 23.2258 34.05 22.7187L22.8375 8.3ZM11.775 3.19375C12.8687 2.09968 14.1827 1.25081 15.6296 0.703508C17.0766 0.156201 18.6234 -0.0770201 20.1674 0.0193316C21.7114 0.115683 23.2172 0.539403 24.5849 1.26235C25.9526 1.98531 27.1508 2.99095 28.1 4.2125L39.3125 18.625C41.3688 21.2687 42.0938 24.7125 41.2813 27.9625L37.8625 41.65C37.6857 42.3589 37.6953 43.1015 37.8902 43.8057C38.0852 44.5098 38.4588 45.1516 38.975 45.6688L54.3313 61.025C54.849 61.5422 55.4918 61.9165 56.1972 62.1115C56.9026 62.3064 57.6464 62.3154 58.3563 62.1375L72.0375 58.7188C73.6413 58.3177 75.3154 58.2866 76.933 58.6277C78.5507 58.9687 80.0696 59.6731 81.375 60.6875L95.7875 71.9C100.969 75.9312 101.444 83.5875 96.8063 88.2187L90.3438 94.6812C85.7188 99.3062 78.8063 101.337 72.3625 99.0687C55.8699 93.2658 40.8955 83.824 28.55 71.4437C16.1706 59.1001 6.7288 44.1279 0.925 27.6375C-1.3375 21.2 0.69375 14.2812 5.31875 9.65625L11.7812 3.19375H11.775Z"/>
</svg>
